<svg width="23" height="23" viewBox="0 0 23 23" fill="none" xmlns="http://www.w3.org/2000/svg">
<circle cx="11.5" cy="11.5" r="11" stroke="#07A9BF"/>
<path d="M10.3494 14.3182V14.2415C10.358 13.4276 10.4432 12.7798 10.6051 12.2983C10.767 11.8168 10.9972 11.4268 11.2955 11.1286C11.5938 10.8303 11.9517 10.5554 12.3693 10.304C12.6207 10.1506 12.8466 9.96946 13.0469 9.76065C13.2472 9.54758 13.4048 9.30256 13.5199 9.02557C13.6392 8.74858 13.6989 8.44176 13.6989 8.10511C13.6989 7.6875 13.6009 7.32528 13.4048 7.01847C13.2088 6.71165 12.9467 6.47514 12.6186 6.30895C12.2905 6.14276 11.9261 6.05966 11.5256 6.05966C11.1761 6.05966 10.8395 6.1321 10.5156 6.27699C10.1918 6.42187 9.92116 6.64986 9.70384 6.96094C9.48651 7.27202 9.3608 7.67898 9.3267 8.18182H7.71591C7.75 7.45739 7.9375 6.83736 8.27841 6.32173C8.62358 5.80611 9.07741 5.41193 9.63991 5.1392C10.2067 4.86648 10.8352 4.73011 11.5256 4.73011C12.2756 4.73011 12.9276 4.87926 13.4815 5.17756C14.0398 5.47585 14.4702 5.88494 14.7727 6.40483C15.0795 6.92472 15.233 7.51704 15.233 8.18182C15.233 8.65057 15.1605 9.07457 15.0156 9.45384C14.875 9.8331 14.6705 10.1719 14.402 10.4702C14.1378 10.7685 13.8182 11.0327 13.4432 11.2628C13.0682 11.4972 12.7678 11.7443 12.5419 12.0043C12.3161 12.2599 12.152 12.5646 12.0497 12.9183C11.9474 13.272 11.892 13.7131 11.8835 14.2415V14.3182H10.3494ZM11.1676 18.1023C10.8523 18.1023 10.5817 17.9893 10.3558 17.7635C10.13 17.5376 10.017 17.267 10.017 16.9517C10.017 16.6364 10.13 16.3658 10.3558 16.1399C10.5817 15.9141 10.8523 15.8011 11.1676 15.8011C11.483 15.8011 11.7536 15.9141 11.9794 16.1399C12.2053 16.3658 12.3182 16.6364 12.3182 16.9517C12.3182 17.1605 12.2649 17.3523 12.1584 17.527C12.0561 17.7017 11.9176 17.8423 11.7429 17.9489C11.5724 18.0511 11.3807 18.1023 11.1676 18.1023Z" fill="#07A9BF"/>
</svg>
