<svg width="42" height="74" viewBox="0 0 42 74" fill="none" xmlns="http://www.w3.org/2000/svg">
<mask id="path-1-inside-1_97_85" fill="white">
<path d="M42 68L27 74L21 72L15 74L0 68V1C0 1 9.19575 4.11145 15 3C17.4258 2.53548 21 0 21 0C21 0 24.5742 2.53548 27 3C32.8042 4.11145 42 1 42 1V68Z"/>
</mask>
<path d="M42 68L27 74L21 72L15 74L0 68V1C0 1 9.19575 4.11145 15 3C17.4258 2.53548 21 0 21 0C21 0 24.5742 2.53548 27 3C32.8042 4.11145 42 1 42 1V68Z" fill="url(#paint0_linear_97_85)"/>
<path d="M42 68L42.3714 68.9285L43 68.677V68H42ZM27 74L26.6838 74.9487L27.0313 75.0645L27.3714 74.9285L27 74ZM21 72L21.3162 71.0513L21 70.9459L20.6838 71.0513L21 72ZM15 74L14.6286 74.9285L14.9687 75.0645L15.3162 74.9487L15 74ZM0 68H-1V68.677L-0.371391 68.9285L0 68ZM0 1L0.320508 0.0527541L-1 -0.39405V1H0ZM15 3L14.8119 2.01784L15 3ZM21 0L21.5786 -0.815619L21 -1.22606L20.4214 -0.815619L21 0ZM27 3L27.1881 2.01784L27 3ZM42 1H43V-0.39405L41.6795 0.0527541L42 1ZM42 68L41.6286 67.0715L26.6286 73.0715L27 74L27.3714 74.9285L42.3714 68.9285L42 68ZM27 74L27.3162 73.0513L21.3162 71.0513L21 72L20.6838 72.9487L26.6838 74.9487L27 74ZM21 72L20.6838 71.0513L14.6838 73.0513L15 74L15.3162 74.9487L21.3162 72.9487L21 72ZM15 74L15.3714 73.0715L0.371391 67.0715L0 68L-0.371391 68.9285L14.6286 74.9285L15 74ZM0 68H1V1H0H-1V68H0ZM0 1C-0.320508 1.94725 -0.320334 1.9473 -0.320125 1.94738C-0.320008 1.94741 -0.319764 1.9475 -0.319531 1.94758C-0.319065 1.94773 -0.318458 1.94794 -0.317713 1.94819C-0.316222 1.94869 -0.314173 1.94938 -0.311573 1.95025C-0.306373 1.952 -0.298966 1.95448 -0.289402 1.95766C-0.270273 1.96404 -0.242508 1.97323 -0.206492 1.98502C-0.134466 2.00861 -0.0294123 2.04259 0.105586 2.08519C0.375531 2.17035 0.765518 2.29002 1.25084 2.42976C2.22066 2.70899 3.57547 3.06961 5.11671 3.3952C8.16015 4.03814 12.0774 4.57782 15.1881 3.98216L15 3L14.8119 2.01784C12.1184 2.53363 8.5356 2.07331 5.5301 1.43839C4.04688 1.12505 2.73998 0.777268 1.80421 0.507837C1.33674 0.373242 0.962967 0.258511 0.707347 0.177862C0.579562 0.137546 0.481383 0.105772 0.415872 0.0843214C0.383118 0.0735967 0.358538 0.0654548 0.342515 0.0601187C0.334503 0.0574507 0.328632 0.0554844 0.324948 0.0542476C0.323106 0.0536292 0.321811 0.0531932 0.321069 0.0529431C0.320698 0.0528181 0.320465 0.0527395 0.320371 0.0527079C0.320324 0.052692 0.320359 0.0527036 0.320335 0.0526956C0.320404 0.0527189 0.320508 0.0527541 0 1ZM15 3L15.1881 3.98216C16.5803 3.71557 18.2065 2.88746 19.4102 2.19152C20.0289 1.8338 20.568 1.49184 20.9526 1.23928C21.1452 1.1128 21.2998 1.00824 21.4071 0.934687C21.4607 0.897899 21.5026 0.868831 21.5316 0.848616C21.5461 0.838508 21.5573 0.830611 21.5652 0.825065C21.5691 0.822292 21.5722 0.820106 21.5745 0.818526C21.5756 0.817736 21.5765 0.817097 21.5772 0.816612C21.5775 0.816369 21.5778 0.816165 21.5781 0.815999C21.5782 0.815917 21.5783 0.815821 21.5784 0.81578C21.5785 0.815694 21.5786 0.815619 21 0C20.4214 -0.815619 20.4215 -0.815675 20.4216 -0.815722C20.4216 -0.815725 20.4216 -0.815762 20.4216 -0.815768C20.4216 -0.815779 20.4216 -0.815752 20.4215 -0.815688C20.4213 -0.815558 20.4209 -0.815277 20.4203 -0.814847C20.4191 -0.813986 20.417 -0.812528 20.4141 -0.810489C20.4083 -0.806412 20.3992 -0.800016 20.3869 -0.79144C20.3624 -0.774287 20.3251 -0.748428 20.2763 -0.71498C20.1787 -0.648059 20.0351 -0.550908 19.8547 -0.432426C19.4933 -0.195063 18.9872 0.125874 18.4092 0.460087C17.2193 1.14803 15.8456 1.81992 14.8119 2.01784L15 3ZM21 0C20.4214 0.815619 20.4215 0.815694 20.4216 0.81578C20.4217 0.815821 20.4218 0.815917 20.4219 0.815999C20.4222 0.816165 20.4225 0.816369 20.4228 0.816612C20.4235 0.817097 20.4244 0.817736 20.4255 0.818526C20.4278 0.820106 20.4309 0.822292 20.4348 0.825065C20.4427 0.830611 20.4539 0.838508 20.4684 0.848616C20.4974 0.868831 20.5393 0.897899 20.5929 0.934687C20.7002 1.00824 20.8548 1.1128 21.0474 1.23928C21.432 1.49184 21.9711 1.8338 22.5898 2.19152C23.7935 2.88746 25.4197 3.71557 26.8119 3.98216L27 3L27.1881 2.01784C26.1544 1.81992 24.7807 1.14803 23.5908 0.460087C23.0128 0.125874 22.5067 -0.195063 22.1453 -0.432426C21.9649 -0.550908 21.8213 -0.648059 21.7237 -0.71498C21.6749 -0.748428 21.6376 -0.774287 21.6131 -0.79144C21.6008 -0.800016 21.5917 -0.806412 21.5859 -0.810489C21.583 -0.812528 21.5809 -0.813986 21.5797 -0.814847C21.5791 -0.815277 21.5787 -0.815558 21.5785 -0.815688C21.5784 -0.815752 21.5784 -0.815779 21.5784 -0.815768C21.5784 -0.815762 21.5784 -0.815725 21.5784 -0.815722C21.5785 -0.815675 21.5786 -0.815619 21 0ZM27 3L26.8119 3.98216C29.9226 4.57782 33.8398 4.03814 36.8833 3.3952C38.4245 3.06961 39.7793 2.70899 40.7492 2.42976C41.2345 2.29002 41.6245 2.17035 41.8944 2.08519C42.0294 2.04259 42.1345 2.00861 42.2065 1.98502C42.2425 1.97323 42.2703 1.96404 42.2894 1.95766C42.299 1.95448 42.3064 1.952 42.3116 1.95025C42.3142 1.94938 42.3162 1.94869 42.3177 1.94819C42.3185 1.94794 42.3191 1.94773 42.3195 1.94758C42.3198 1.9475 42.32 1.94741 42.3201 1.94738C42.3203 1.9473 42.3205 1.94725 42 1C41.6795 0.0527541 41.6796 0.0527189 41.6797 0.0526956C41.6796 0.0527036 41.6797 0.052692 41.6796 0.0527079C41.6795 0.0527395 41.6793 0.0528181 41.6789 0.0529431C41.6782 0.0531932 41.6769 0.0536292 41.6751 0.0542476C41.6714 0.0554844 41.6655 0.0574507 41.6575 0.0601187C41.6415 0.0654548 41.6169 0.0735967 41.5841 0.0843214C41.5186 0.105772 41.4204 0.137546 41.2927 0.177862C41.037 0.258511 40.6633 0.373242 40.1958 0.507837C39.26 0.777268 37.9531 1.12505 36.4699 1.43839C33.4644 2.07331 29.8816 2.53363 27.1881 2.01784L27 3ZM42 1H41V68H42H43V1H42Z" fill="url(#paint1_linear_97_85)" mask="url(#path-1-inside-1_97_85)"/>
<g clip-path="url(#clip0_97_85)">
<path d="M0.915482 13.3257L41.1894 23.3949L41.0769 41.9693L0.796751 32.9321L0.915482 13.3257Z" fill="#F2DD1F"/>
</g>
<rect x="2" y="53" width="38" height="1" fill="black"/>
<defs>
<linearGradient id="paint0_linear_97_85" x1="21" y1="0" x2="21" y2="7" gradientUnits="userSpaceOnUse">
<stop stop-color="#B6A82C"/>
<stop offset="1" stop-color="#E6D330"/>
</linearGradient>
<linearGradient id="paint1_linear_97_85" x1="-9.5" y1="-4.5" x2="52" y2="77" gradientUnits="userSpaceOnUse">
<stop offset="0.3" stop-color="#08C0D9"/>
<stop offset="1" stop-color="#046673"/>
</linearGradient>
<clipPath id="clip0_97_85">
<rect width="40" height="30" fill="white" transform="translate(1 13)"/>
</clipPath>
</defs>
</svg>
